<svg version="1.1" id="Layer_1" xmlns="http://www.w3.org/2000/svg" xmlns:xlink="http://www.w3.org/1999/xlink" x="0px" y="0px"
	 width="100%" viewBox="0 0 500 500" enable-background="new 0 0 500 500" xml:space="preserve">
<path fill="#00B6D7" opacity="1.000000" stroke="none" 
	d="
M501.000000,68.000000 
	C501.000000,189.689316 501.000000,311.378632 500.636627,433.703369 
	C495.984161,459.298828 482.978607,478.476807 460.947723,490.777435 
	C452.649475,495.410614 443.021698,497.662506 434.000000,501.000000 
	C312.310699,501.000000 190.621384,501.000000 68.296646,500.636627 
	C42.701149,495.984192 23.523251,482.978546 11.222596,460.947723 
	C6.589376,452.649475 4.337476,443.021698 1.000003,434.000000 
	C1.000000,312.310699 1.000000,190.621384 1.363376,68.296646 
	C6.015811,42.701153 19.021441,23.523207 41.052296,11.222575 
	C49.350525,6.589372 58.978317,4.337471 68.000000,1.000000 
	C189.689316,1.000000 311.378632,1.000000 433.703369,1.363376 
	C459.298828,6.015821 478.476776,19.021427 490.777466,41.052277 
	C495.410645,49.350506 497.662537,58.978310 501.000000,68.000000 
M99.037971,276.503479 
	C105.248230,312.044403 121.112610,342.579926 148.504471,366.095367 
	C195.536591,406.471588 249.333954,417.042938 307.035370,394.647461 
	C364.780792,372.234924 397.910309,328.022186 404.550140,266.490875 
	C415.030640,169.367447 332.744476,87.986702 235.682846,97.794350 
	C147.414246,106.713493 84.680481,188.295059 99.037971,276.503479 
z"/>
<path fill="#FFFFFF" opacity="1.000000" stroke="none" 
	d="
M67.531342,1.000000 
	C58.978317,4.337471 49.350525,6.589372 41.052296,11.222575 
	C19.021441,23.523207 6.015811,42.701153 1.363376,67.830597 
	C1.000000,45.739822 1.000000,23.479643 1.000000,1.000000 
	C23.020409,1.000000 45.041546,1.000000 67.531342,1.000000 
z"/>
<path fill="#FFFFFF" opacity="1.000000" stroke="none" 
	d="
M501.000000,67.531342 
	C497.662537,58.978310 495.410645,49.350506 490.777466,41.052277 
	C478.476776,19.021427 459.298828,6.015821 434.169403,1.363376 
	C456.260162,1.000000 478.520355,1.000000 501.000000,1.000000 
	C501.000000,23.020409 501.000000,45.041546 501.000000,67.531342 
z"/>
<path fill="#FFFFFF" opacity="1.000000" stroke="none" 
	d="
M1.000003,434.468658 
	C4.337476,443.021698 6.589376,452.649475 11.222596,460.947723 
	C23.523251,482.978546 42.701149,495.984192 67.830597,500.636627 
	C45.739822,501.000000 23.479647,501.000000 1.000000,501.000000 
	C1.000000,478.979584 1.000000,456.958466 1.000003,434.468658 
z"/>
<path fill="#FFFFFF" opacity="1.000000" stroke="none" 
	d="
M434.468658,501.000000 
	C443.021698,497.662506 452.649475,495.410614 460.947723,490.777435 
	C482.978607,478.476807 495.984161,459.298828 500.636627,434.169403 
	C501.000000,456.260162 501.000000,478.520355 501.000000,501.000000 
	C478.979584,501.000000 456.958466,501.000000 434.468658,501.000000 
z"/>
<path fill="#FCFEFE" opacity="1.000000" stroke="none" 
	d="
M98.982620,276.070190 
	C84.680481,188.295059 147.414246,106.713493 235.682846,97.794350 
	C332.744476,87.986702 415.030640,169.367447 404.550140,266.490875 
	C397.910309,328.022186 364.780792,372.234924 307.035370,394.647461 
	C249.333954,417.042938 195.536591,406.471588 148.504471,366.095367 
	C121.112610,342.579926 105.248230,312.044403 98.982620,276.070190 
M370.969788,191.602478 
	C370.351227,190.423218 369.736633,189.241837 369.113525,188.064987 
	C325.979584,106.600159 213.348312,92.927757 151.893326,161.696014 
	C114.596176,203.431580 106.836685,262.515106 132.138351,312.117065 
	C157.312042,361.468170 210.098389,389.961395 265.675934,384.198608 
	C357.608185,374.666260 412.226807,275.393036 370.969788,191.602478 
z"/>
<path fill="#06B7D8" opacity="1.000000" stroke="none" 
	d="
M371.115356,191.946411 
	C412.226807,275.393036 357.608185,374.666260 265.675934,384.198608 
	C210.098389,389.961395 157.312042,361.468170 132.138351,312.117065 
	C106.836685,262.515106 114.596176,203.431580 151.893326,161.696014 
	C213.348312,92.927757 325.979584,106.600159 369.113525,188.064987 
	C369.736633,189.241837 370.351227,190.423218 371.115356,191.946411 
M155.697739,326.770538 
	C179.718094,356.019775 210.689438,371.782837 248.461090,372.727325 
	C323.472168,374.603027 381.744354,309.433624 372.195557,235.015106 
	C363.281525,165.543655 295.966187,117.364891 227.550110,131.489822 
	C137.856720,150.007568 99.498550,253.305984 155.697739,326.770538 
z"/>
<path fill="#FEFFFF" opacity="1.000000" stroke="none" 
	d="
M155.467926,326.498169 
	C99.498550,253.305984 137.856720,150.007568 227.550110,131.489822 
	C295.966187,117.364891 363.281525,165.543655 372.195557,235.015106 
	C381.744354,309.433624 323.472168,374.603027 248.461090,372.727325 
	C210.689438,371.782837 179.718094,356.019775 155.467926,326.498169 
z"/>
</svg>